<svg id="fill" height="512" viewBox="0 0 64 64" width="512" xmlns="http://www.w3.org/2000/svg"><path d="m48.924 3a12.076 12.076 0 0 1 12.076 12.076 45.924 45.924 0 0 1 -45.924 45.924 12.076 12.076 0 0 1 -12.076-12.076 45.924 45.924 0 0 1 45.924-45.924z" fill="#ffd257"/><path d="m3.59 41.59 18.82 18.82a45.568 45.568 0 0 0 8.7-2.295l-25.225-25.23a45.568 45.568 0 0 0 -2.295 8.705z" fill="#bbf9ff"/><path d="m41.59 3.59a45.568 45.568 0 0 0 -8.705 2.3l25.23 25.23a45.568 45.568 0 0 0 2.295-8.7z" fill="#bbf9ff"/><path d="m18.5 45.5 12.615 12.615a46.051 46.051 0 0 0 27-27l-12.615-12.615z" fill="#f89c5b"/><path d="m13 51-6.463 6.463a12.04 12.04 0 0 0 8.539 3.537 46.172 46.172 0 0 0 7.334-.59z" fill="#f89c5b"/><path d="m51 13 9.41 9.41a46.172 46.172 0 0 0 .59-7.334 12.04 12.04 0 0 0 -3.537-8.539z" fill="#f89c5b"/><path d="m17.858 29.172h28.284v5.657h-28.284z" fill="#35d7fd" transform="matrix(.707 -.707 .707 .707 -13.255 32)"/><path d="m18.858 31.586h28.284v2.828h-28.284z" fill="#03b3e2" transform="matrix(.707 -.707 .707 .707 -13.669 33)"/><g fill="#bbf9ff"><path d="m23.879 31.636h4.243v12.728h-4.243z" transform="matrix(.707 -.707 .707 .707 -19.255 29.515)"/><path d="m29.879 25.636h4.243v12.728h-4.243z" transform="matrix(.707 -.707 .707 .707 -13.255 32)"/><path d="m35.879 19.636h4.243v12.728h-4.243z" transform="matrix(.707 -.707 .707 .707 -7.255 34.485)"/></g><path d="m31.115 58.115-12.615-12.615-5.5 5.5 9.41 9.41a45.568 45.568 0 0 0 8.705-2.295z" fill="#35d7fd"/><path d="m60.41 22.41-9.41-9.41-5.5 5.5 12.615 12.615a45.568 45.568 0 0 0 2.295-8.705z" fill="#35d7fd"/><path d="m48.923 2a46.977 46.977 0 0 0 -46.923 46.924 13.091 13.091 0 0 0 13.077 13.076 46.977 46.977 0 0 0 46.923-46.924 13.091 13.091 0 0 0 -13.077-13.076zm-7.669 2.668 18.078 18.078a44.668 44.668 0 0 1 -1.644 6.528l-22.962-22.962a44.668 44.668 0 0 1 6.528-1.644zm-34.942 30.058 22.962 22.962a44.636 44.636 0 0 1 -6.528 1.644l-18.078-18.078a44.668 44.668 0 0 1 1.644-6.528zm8.764 25.274a11.089 11.089 0 0 1 -11.076-11.076 45.32 45.32 0 0 1 .31-5.2l15.966 15.966a45.317 45.317 0 0 1 -5.2.31zm16.275-3.064-24.287-24.286a45.144 45.144 0 0 1 25.586-25.586l24.286 24.286a45.145 45.145 0 0 1 -25.585 25.586zm28.339-36.66-15.966-15.966a45.32 45.32 0 0 1 5.2-.31 11.089 11.089 0 0 1 11.076 11.076 45.32 45.32 0 0 1 -.31 5.2z"/><path d="m44.707 23.293-4-4a1 1 0 0 0 -1.414 0l-1.793 1.793-1.793-1.793a1 1 0 0 0 -1.414 0l-3 3a1 1 0 0 0 0 1.414l1.793 1.793-1.586 1.586-1.793-1.793a1 1 0 0 0 -1.414 0l-3 3a1 1 0 0 0 0 1.414l1.793 1.793-1.586 1.586-1.793-1.793a1 1 0 0 0 -1.414 0l-3 3a1 1 0 0 0 0 1.414l1.793 1.793-1.793 1.793a1 1 0 0 0 0 1.414l4 4a1 1 0 0 0 1.414 0l1.793-1.793 1.793 1.793a1 1 0 0 0 1.414 0l3-3a1 1 0 0 0 0-1.414l-1.793-1.793 1.586-1.586 1.793 1.793a1 1 0 0 0 1.414 0l3-3a1 1 0 0 0 0-1.414l-1.793-1.793 1.586-1.586 1.793 1.793a1 1 0 0 0 1.414 0l3-3a1 1 0 0 0 0-1.414l-1.793-1.793 1.793-1.793a1 1 0 0 0 0-1.414zm-20.707 19.293-2.586-2.586 1.086-1.086 2.586 2.586zm5 0-7.586-7.586 1.586-1.586 7.586 7.586zm.5-5.5-2.586-2.586 1.586-1.586 2.586 2.586zm5.5-.5-7.586-7.586 1.586-1.586 7.586 7.586zm.5-5.5-2.586-2.586 1.586-1.586 2.586 2.586zm5.5-.5-7.586-7.586 1.586-1.586 7.586 7.586zm-2.086-8.086 1.086-1.086 2.586 2.586-1.086 1.086z"/></svg>